%TF.GenerationSoftware,KiCad,Pcbnew,8.0.5*%
%TF.CreationDate,2024-09-30T14:32:55-04:00*%
%TF.ProjectId,HarveyBehaviorPCB_v2,48617276-6579-4426-9568-6176696f7250,rev?*%
%TF.SameCoordinates,Original*%
%TF.FileFunction,Soldermask,Bot*%
%TF.FilePolarity,Negative*%
%FSLAX46Y46*%
G04 Gerber Fmt 4.6, Leading zero omitted, Abs format (unit mm)*
G04 Created by KiCad (PCBNEW 8.0.5) date 2024-09-30 14:32:55*
%MOMM*%
%LPD*%
G01*
G04 APERTURE LIST*
G04 Aperture macros list*
%AMRoundRect*
0 Rectangle with rounded corners*
0 $1 Rounding radius*
0 $2 $3 $4 $5 $6 $7 $8 $9 X,Y pos of 4 corners*
0 Add a 4 corners polygon primitive as box body*
4,1,4,$2,$3,$4,$5,$6,$7,$8,$9,$2,$3,0*
0 Add four circle primitives for the rounded corners*
1,1,$1+$1,$2,$3*
1,1,$1+$1,$4,$5*
1,1,$1+$1,$6,$7*
1,1,$1+$1,$8,$9*
0 Add four rect primitives between the rounded corners*
20,1,$1+$1,$2,$3,$4,$5,0*
20,1,$1+$1,$4,$5,$6,$7,0*
20,1,$1+$1,$6,$7,$8,$9,0*
20,1,$1+$1,$8,$9,$2,$3,0*%
%AMFreePoly0*
4,1,25,0.438258,0.998173,0.443160,0.993682,0.993682,0.443160,1.015710,0.395919,1.016000,0.389278,1.016000,-0.389278,0.998173,-0.438258,0.993682,-0.443160,0.443160,-0.993682,0.395919,-1.015710,0.389278,-1.016000,-0.389278,-1.016000,-0.438258,-0.998173,-0.443160,-0.993682,-0.993682,-0.443160,-1.015710,-0.395919,-1.016000,-0.389278,-1.016000,0.389278,-0.998173,0.438258,-0.993682,0.443160,
-0.443160,0.993682,-0.395919,1.015710,-0.389278,1.016000,0.389278,1.016000,0.438258,0.998173,0.438258,0.998173,$1*%
G04 Aperture macros list end*
%ADD10C,0.000000*%
%ADD11O,1.676400X3.200400*%
%ADD12O,2.500000X1.600000*%
%ADD13O,7.000000X3.500000*%
%ADD14FreePoly0,0.000000*%
%ADD15RoundRect,0.076200X-0.825500X-0.825500X0.825500X-0.825500X0.825500X0.825500X-0.825500X0.825500X0*%
%ADD16C,1.803400*%
%ADD17C,2.032000*%
%ADD18C,6.350000*%
%ADD19C,1.828800*%
%ADD20O,1.600000X2.500000*%
%ADD21O,3.500000X7.000000*%
%ADD22R,1.500000X1.500000*%
%ADD23O,1.500000X1.500000*%
%ADD24R,1.600000X2.400000*%
%ADD25O,1.600000X2.400000*%
%ADD26O,3.200400X1.676400*%
%ADD27C,1.600000*%
%ADD28O,1.600000X1.600000*%
%ADD29C,2.184400*%
%ADD30C,2.057400*%
%ADD31C,1.050000*%
%ADD32R,1.050000X1.050000*%
%ADD33C,1.200000*%
%ADD34C,1.600200*%
%ADD35C,4.703200*%
%ADD36C,4.521200*%
G04 APERTURE END LIST*
D10*
%TO.C,C7*%
G36*
X172791654Y-94759260D02*
G01*
X172983612Y-94820549D01*
X173159926Y-94918108D01*
X173313819Y-95048190D01*
X173439378Y-95205796D01*
X173531776Y-95384868D01*
X173587463Y-95578526D01*
X173599158Y-95718000D01*
X173610910Y-95718640D01*
X173604290Y-95779201D01*
X173609311Y-95839076D01*
X173597692Y-95839562D01*
X173582977Y-95974193D01*
X173523986Y-96161395D01*
X173429597Y-96333485D01*
X173303441Y-96483848D01*
X173150368Y-96606702D01*
X172976265Y-96697323D01*
X172787825Y-96752227D01*
X172654080Y-96763907D01*
X172653636Y-96774383D01*
X172593076Y-96769235D01*
X172532448Y-96774530D01*
X172531990Y-96764042D01*
X172397315Y-96752594D01*
X172207811Y-96697865D01*
X172032626Y-96607217D01*
X171878492Y-96484135D01*
X171751331Y-96333347D01*
X171654502Y-96157877D01*
X171574021Y-95779764D01*
X171591635Y-95575828D01*
X171647806Y-95382331D01*
X171740653Y-95203511D01*
X171866605Y-95046246D01*
X172020821Y-94916577D01*
X172200148Y-94817966D01*
X172587429Y-94736147D01*
X172791654Y-94759260D01*
G37*
G36*
X169992554Y-94759260D02*
G01*
X170184512Y-94820549D01*
X170360826Y-94918108D01*
X170514719Y-95048190D01*
X170640278Y-95205796D01*
X170732676Y-95384868D01*
X170788363Y-95578526D01*
X170800059Y-95718001D01*
X170811810Y-95718641D01*
X170805191Y-95779202D01*
X170810211Y-95839076D01*
X170798593Y-95839562D01*
X170783877Y-95974194D01*
X170724885Y-96161395D01*
X170630497Y-96333486D01*
X170504341Y-96483848D01*
X170351268Y-96606702D01*
X170177165Y-96697323D01*
X169988724Y-96752227D01*
X169854981Y-96763907D01*
X169854536Y-96774383D01*
X169793977Y-96769235D01*
X169733348Y-96774530D01*
X169732891Y-96764042D01*
X169598215Y-96752594D01*
X169408711Y-96697865D01*
X169233526Y-96607217D01*
X169079392Y-96484135D01*
X168952231Y-96333347D01*
X168855402Y-96157877D01*
X168787130Y-95837124D01*
X168770031Y-95836387D01*
X168792535Y-95575829D01*
X168848706Y-95382331D01*
X168941552Y-95203512D01*
X169067504Y-95046246D01*
X169221721Y-94916577D01*
X169401048Y-94817965D01*
X169788329Y-94736147D01*
X169992554Y-94759260D01*
G37*
%TO.C,C6*%
G36*
X137850172Y-88533635D02*
G01*
X138043669Y-88589806D01*
X138222489Y-88682653D01*
X138379754Y-88808605D01*
X138509423Y-88962821D01*
X138608034Y-89142148D01*
X138689853Y-89529429D01*
X138666740Y-89733654D01*
X138605451Y-89925612D01*
X138507892Y-90101926D01*
X138377810Y-90255819D01*
X138220204Y-90381378D01*
X138041132Y-90473776D01*
X137847474Y-90529463D01*
X137708000Y-90541158D01*
X137707360Y-90552910D01*
X137646799Y-90546290D01*
X137586924Y-90551311D01*
X137586438Y-90539692D01*
X137451807Y-90524977D01*
X137264605Y-90465986D01*
X137092515Y-90371597D01*
X136942152Y-90245441D01*
X136819298Y-90092368D01*
X136728677Y-89918265D01*
X136673773Y-89729825D01*
X136662093Y-89596080D01*
X136651617Y-89595636D01*
X136656765Y-89535076D01*
X136651470Y-89474448D01*
X136661958Y-89473990D01*
X136673406Y-89339315D01*
X136728135Y-89149811D01*
X136818783Y-88974626D01*
X136941865Y-88820492D01*
X137092653Y-88693331D01*
X137268123Y-88596502D01*
X137646236Y-88516021D01*
X137850172Y-88533635D01*
G37*
G36*
X137850171Y-85734535D02*
G01*
X138043669Y-85790706D01*
X138222488Y-85883552D01*
X138379754Y-86009504D01*
X138509423Y-86163721D01*
X138608035Y-86343048D01*
X138689853Y-86730329D01*
X138666740Y-86934554D01*
X138605451Y-87126512D01*
X138507892Y-87302826D01*
X138377810Y-87456719D01*
X138220204Y-87582278D01*
X138041132Y-87674676D01*
X137847474Y-87730363D01*
X137707999Y-87742059D01*
X137707359Y-87753810D01*
X137646798Y-87747191D01*
X137586924Y-87752211D01*
X137586438Y-87740593D01*
X137451806Y-87725877D01*
X137264605Y-87666885D01*
X137092514Y-87572497D01*
X136942152Y-87446341D01*
X136819298Y-87293268D01*
X136728677Y-87119165D01*
X136673773Y-86930724D01*
X136662093Y-86796981D01*
X136651617Y-86796536D01*
X136656765Y-86735977D01*
X136651470Y-86675348D01*
X136661958Y-86674891D01*
X136673406Y-86540215D01*
X136728135Y-86350711D01*
X136818783Y-86175526D01*
X136941865Y-86021392D01*
X137092653Y-85894231D01*
X137268123Y-85797402D01*
X137588876Y-85729130D01*
X137589613Y-85712031D01*
X137850171Y-85734535D01*
G37*
%TD*%
D11*
%TO.C,Q2*%
X133096000Y-142748000D03*
X135636000Y-142748000D03*
X138176000Y-142748000D03*
%TD*%
D12*
%TO.C,U$10*%
X219456000Y-144018000D03*
D13*
X224536000Y-138938000D03*
D12*
X219456000Y-141478000D03*
D13*
X224536000Y-149098000D03*
%TD*%
D14*
%TO.C,J4*%
X103886000Y-77978000D03*
X103886000Y-75438000D03*
X106426000Y-77978000D03*
X106426000Y-75438000D03*
X108966000Y-77978000D03*
X108966000Y-75438000D03*
X111506000Y-77978000D03*
X111506000Y-75438000D03*
%TD*%
D15*
%TO.C,C2*%
X155956000Y-75438000D03*
D16*
X153416000Y-75438000D03*
%TD*%
D17*
%TO.C,R9*%
X190246000Y-84328000D03*
X190246000Y-97028000D03*
%TD*%
D14*
%TO.C,J9*%
X50546000Y-144018000D03*
X50546000Y-141478000D03*
X53086000Y-144018000D03*
X53086000Y-141478000D03*
X55626000Y-144018000D03*
X55626000Y-141478000D03*
X58166000Y-144018000D03*
X58166000Y-141478000D03*
X60706000Y-144018000D03*
X60706000Y-141478000D03*
X63246000Y-144018000D03*
X63246000Y-141478000D03*
X65786000Y-144018000D03*
X65786000Y-141478000D03*
X68326000Y-144018000D03*
X68326000Y-141478000D03*
%TD*%
D17*
%TO.C,JP3*%
X87376000Y-145288000D03*
X89916000Y-145288000D03*
%TD*%
D18*
%TO.C,J11*%
X210566000Y-150368000D03*
%TD*%
%TO.C,J2*%
X32766000Y-150368000D03*
%TD*%
D19*
%TO.C,D1*%
X130556000Y-147828000D03*
X140716000Y-147828000D03*
%TD*%
D20*
%TO.C,U$4*%
X157226000Y-48768000D03*
D21*
X152146000Y-43688000D03*
D20*
X154686000Y-48768000D03*
D21*
X162306000Y-43688000D03*
%TD*%
D17*
%TO.C,R13*%
X88646000Y-110998000D03*
X88646000Y-123698000D03*
%TD*%
D11*
%TO.C,J18*%
X148336000Y-154178000D03*
X145796000Y-154178000D03*
%TD*%
%TO.C,Q1*%
X116586000Y-142748000D03*
X119126000Y-142748000D03*
X121666000Y-142748000D03*
%TD*%
D22*
%TO.C,D3*%
X83815000Y-68580000D03*
D23*
X91435000Y-68580000D03*
%TD*%
D24*
%TO.C,IC1*%
X164934900Y-91693393D03*
D25*
X167474900Y-91693393D03*
X170014900Y-91693393D03*
X172554900Y-91693393D03*
X175094900Y-91693393D03*
X177634900Y-91693393D03*
X180174900Y-91693393D03*
X180174900Y-84073393D03*
X177634900Y-84073393D03*
X175094900Y-84073393D03*
X172554900Y-84073393D03*
X170014900Y-84073393D03*
X167474900Y-84073393D03*
X164934900Y-84073393D03*
%TD*%
D17*
%TO.C,R12*%
X93726000Y-123698000D03*
X93726000Y-110998000D03*
%TD*%
%TO.C,R11*%
X98806000Y-123698000D03*
X98806000Y-110998000D03*
%TD*%
D11*
%TO.C,J15*%
X120396000Y-154178000D03*
X117856000Y-154178000D03*
%TD*%
D26*
%TO.C,J8*%
X196596000Y-102108000D03*
X196596000Y-104648000D03*
%TD*%
D22*
%TO.C,D4*%
X83815000Y-66040000D03*
D23*
X91435000Y-66040000D03*
%TD*%
D11*
%TO.C,J16*%
X108966000Y-154178000D03*
X106426000Y-154178000D03*
%TD*%
D17*
%TO.C,R4*%
X149606000Y-114808000D03*
X149606000Y-102108000D03*
%TD*%
D27*
%TO.C,R17*%
X50800000Y-66802000D03*
D28*
X60960000Y-66802000D03*
%TD*%
D17*
%TO.C,R14*%
X180086000Y-67818000D03*
X180086000Y-80518000D03*
%TD*%
D16*
%TO.C,C5*%
X88646000Y-127508000D03*
X88646000Y-130048000D03*
%TD*%
D17*
%TO.C,R2*%
X172466000Y-114808000D03*
X172466000Y-102108000D03*
%TD*%
D29*
%TO.C,C7*%
X169799000Y-95758000D03*
X172593000Y-95758000D03*
%TD*%
D14*
%TO.C,J5*%
X103886000Y-99568000D03*
X103886000Y-97028000D03*
X106426000Y-99568000D03*
X106426000Y-97028000D03*
X108966000Y-99568000D03*
X108966000Y-97028000D03*
X111506000Y-99568000D03*
X111506000Y-97028000D03*
%TD*%
D16*
%TO.C,C4*%
X93726000Y-127508000D03*
X93726000Y-130048000D03*
%TD*%
D20*
%TO.C,U$2*%
X78486000Y-48768000D03*
D21*
X73406000Y-43688000D03*
D20*
X75946000Y-48768000D03*
D21*
X83566000Y-43688000D03*
%TD*%
D17*
%TO.C,R1*%
X141986000Y-136398000D03*
X129286000Y-136398000D03*
%TD*%
%TO.C,R16*%
X129286000Y-130048000D03*
X141986000Y-130048000D03*
%TD*%
%TO.C,R15*%
X112776000Y-130048000D03*
X125476000Y-130048000D03*
%TD*%
%TO.C,R5*%
X164846000Y-114808000D03*
X164846000Y-102108000D03*
%TD*%
%TO.C,R6*%
X154686000Y-114808000D03*
X154686000Y-102108000D03*
%TD*%
D11*
%TO.C,J17*%
X136906000Y-154178000D03*
X134366000Y-154178000D03*
%TD*%
D20*
%TO.C,U$1*%
X53086000Y-48768000D03*
D21*
X48006000Y-43688000D03*
D20*
X50546000Y-48768000D03*
D21*
X58166000Y-43688000D03*
%TD*%
D30*
%TO.C,JP1*%
X32766000Y-71628000D03*
D17*
X32766000Y-75438000D03*
X32766000Y-79248000D03*
X32766000Y-83058000D03*
X32766000Y-86868000D03*
X32766000Y-90678000D03*
X32766000Y-94488000D03*
X32766000Y-98298000D03*
X32766000Y-102108000D03*
X32766000Y-105918000D03*
X32766000Y-109728000D03*
X32766000Y-113538000D03*
X32766000Y-117348000D03*
X32766000Y-121158000D03*
X32766000Y-124968000D03*
X32766000Y-128778000D03*
D30*
X30226000Y-71628000D03*
D17*
X30226000Y-75438000D03*
X30226000Y-79248000D03*
X30226000Y-83058000D03*
X30226000Y-86868000D03*
X30226000Y-90678000D03*
X30226000Y-94488000D03*
X30226000Y-98298000D03*
X30226000Y-102108000D03*
X30226000Y-105918000D03*
X30226000Y-109728000D03*
X30226000Y-113538000D03*
X30226000Y-117348000D03*
X30226000Y-121158000D03*
X30226000Y-124968000D03*
X30226000Y-128778000D03*
%TD*%
D12*
%TO.C,U$7*%
X219456000Y-75438000D03*
D13*
X224536000Y-70358000D03*
D12*
X219456000Y-72898000D03*
D13*
X224536000Y-80518000D03*
%TD*%
D31*
%TO.C,J13*%
X128358900Y-95236000D03*
X128358900Y-97736000D03*
X128358900Y-100236000D03*
X128358900Y-102736000D03*
X128358900Y-105236000D03*
X128358900Y-107736000D03*
D32*
X128358900Y-110236000D03*
D33*
X126158900Y-111836000D03*
%TD*%
D16*
%TO.C,C3*%
X98806000Y-127508000D03*
X98806000Y-130048000D03*
%TD*%
D20*
%TO.C,U$3*%
X182626000Y-48768000D03*
D21*
X177546000Y-43688000D03*
D20*
X180086000Y-48768000D03*
D21*
X187706000Y-43688000D03*
%TD*%
D31*
%TO.C,J12*%
X128270000Y-68058000D03*
X128270000Y-70558000D03*
X128270000Y-73058000D03*
X128270000Y-75558000D03*
X128270000Y-78058000D03*
X128270000Y-80558000D03*
D32*
X128270000Y-83058000D03*
D33*
X126070000Y-84658000D03*
%TD*%
D26*
%TO.C,J7*%
X196596000Y-76708000D03*
X196596000Y-79248000D03*
%TD*%
D17*
%TO.C,R8*%
X177546000Y-114808000D03*
X177546000Y-102108000D03*
%TD*%
D26*
%TO.C,J6*%
X196596000Y-89408000D03*
X196596000Y-91948000D03*
%TD*%
D18*
%TO.C,J10*%
X210566000Y-48768000D03*
%TD*%
D15*
%TO.C,C1*%
X164846000Y-75438000D03*
D16*
X162306000Y-75438000D03*
%TD*%
D18*
%TO.C,J3*%
X32766000Y-48768000D03*
%TD*%
D12*
%TO.C,U$8*%
X219456000Y-98298000D03*
D13*
X224536000Y-93218000D03*
D12*
X219456000Y-95758000D03*
D13*
X224536000Y-103378000D03*
%TD*%
D24*
%TO.C,IC3*%
X142074900Y-91693393D03*
D25*
X144614900Y-91693393D03*
X147154900Y-91693393D03*
X149694900Y-91693393D03*
X152234900Y-91693393D03*
X154774900Y-91693393D03*
X157314900Y-91693393D03*
X157314900Y-84073393D03*
X154774900Y-84073393D03*
X152234900Y-84073393D03*
X149694900Y-84073393D03*
X147154900Y-84073393D03*
X144614900Y-84073393D03*
X142074900Y-84073393D03*
%TD*%
D17*
%TO.C,R3*%
X159766000Y-114808000D03*
X159766000Y-102108000D03*
%TD*%
%TO.C,JP2*%
X78486000Y-145288000D03*
X81026000Y-145288000D03*
%TD*%
D19*
%TO.C,D2*%
X114046000Y-147828000D03*
X124206000Y-147828000D03*
%TD*%
D17*
%TO.C,R10*%
X190246000Y-67818000D03*
X190246000Y-80518000D03*
%TD*%
D29*
%TO.C,C6*%
X137668000Y-86741000D03*
X137668000Y-89535000D03*
%TD*%
D12*
%TO.C,U$9*%
X219456000Y-121158000D03*
D13*
X224536000Y-116078000D03*
D12*
X219456000Y-118618000D03*
D13*
X224536000Y-126238000D03*
%TD*%
D17*
%TO.C,R7*%
X125476000Y-136398000D03*
X112776000Y-136398000D03*
%TD*%
D20*
%TO.C,U$5*%
X131826000Y-48768000D03*
D21*
X126746000Y-43688000D03*
D20*
X129286000Y-48768000D03*
D21*
X136906000Y-43688000D03*
%TD*%
D27*
%TO.C,R18*%
X65786000Y-67056000D03*
D28*
X75946000Y-67056000D03*
%TD*%
D12*
%TO.C,U$6*%
X219456000Y-52578000D03*
D13*
X224536000Y-47498000D03*
D12*
X219456000Y-50038000D03*
D13*
X224536000Y-57658000D03*
%TD*%
D34*
%TO.C,TEENSY0*%
X74676000Y-104648000D03*
X74676000Y-102108000D03*
X74676000Y-99568000D03*
X74676000Y-97028000D03*
X59436000Y-102108000D03*
X74676000Y-94488000D03*
X74676000Y-91948000D03*
X74676000Y-89408000D03*
X74676000Y-86868000D03*
X74676000Y-84328000D03*
X74676000Y-81788000D03*
X74676000Y-79248000D03*
X74676000Y-76708000D03*
X74676000Y-74168000D03*
X59436000Y-74168000D03*
X59436000Y-76708000D03*
X59436000Y-79248000D03*
X59436000Y-81788000D03*
X59436000Y-84328000D03*
X59436000Y-86868000D03*
X59436000Y-89408000D03*
X59436000Y-91948000D03*
X59436000Y-94488000D03*
X59436000Y-97028000D03*
X59436000Y-99568000D03*
X59436000Y-104648000D03*
X74676000Y-107188000D03*
X59436000Y-107188000D03*
%TD*%
D35*
%TO.C,J1*%
X168656000Y-154178000D03*
D36*
X168656000Y-160177480D03*
X173355000Y-157177740D03*
%TD*%
M02*
